<?xml version="1.0" encoding="UTF-8" standalone="no"?>
<!DOCTYPE svg PUBLIC "-//W3C//DTD SVG 1.1//EN" "http://www.w3.org/Graphics/SVG/1.1/DTD/svg11.dtd">
<svg version="1.1" xmlns="http://www.w3.org/2000/svg" xmlns:xlink="http://www.w3.org/1999/xlink" preserveAspectRatio="xMidYMid meet" viewBox="0 0 640 640" width="20" height="20"><defs><path d="M65.65 31.55C56.67 31.53 48.44 36.6 44.34 44.67C40.19 52.85 40.92 62.7 46.23 70.17C64.86 96.71 213.96 309.06 232.6 335.61C232.66 335.7 232.73 335.79 232.79 335.88C239.56 345.12 243.23 356.32 243.24 367.82C243.24 389.46 243.24 562.59 243.24 584.24C243.2 590.64 245.69 596.8 250.16 601.35C254.63 605.89 260.7 608.45 267.04 608.45C270.26 608.45 273.45 607.8 276.42 606.55C286.9 602.51 370.68 570.22 381.15 566.18C390.53 563.28 396.76 554.33 396.76 543.55C396.76 525.98 396.76 385.39 396.76 367.82C396.77 356.32 400.44 345.12 407.21 335.88C407.27 335.79 407.34 335.7 407.4 335.61C426.03 309.06 575.14 96.71 593.77 70.16C599.08 62.7 599.81 52.85 595.66 44.67C591.56 36.6 583.33 31.53 574.36 31.55C574.36 31.55 116.52 31.55 65.65 31.55Z" id="i1BKI10h7C"></path></defs><g><g><g><use xlink:href="#i1BKI10h7C" opacity="1" fill="#ffffff" fill-opacity="1"></use><g><use xlink:href="#i1BKI10h7C" opacity="1" fill-opacity="0" stroke="#000000" stroke-width="1" stroke-opacity="0"></use></g></g></g></g></svg>