<?xml version="1.0" encoding="UTF-8" standalone="no"?>
<!DOCTYPE svg PUBLIC "-//W3C//DTD SVG 1.1//EN" "http://www.w3.org/Graphics/SVG/1.1/DTD/svg11.dtd">
<svg version="1.1" xmlns="http://www.w3.org/2000/svg" xmlns:xlink="http://www.w3.org/1999/xlink" preserveAspectRatio="xMidYMid meet" viewBox="0 0 640 640" width="25" height="25"><defs><path d="M150.59 329.73L150.59 183.18L0 183.18L0 329.73L150.59 329.73ZM150.59 512.91L150.59 366.36L0 366.36L0 512.91L150.59 512.91ZM150.59 146.55L150.59 0L0 0L0 146.55L150.59 146.55ZM640 329.73L640 183.18L188.24 183.18L188.24 329.73L640 329.73ZM640 512.91L640 366.36L188.24 366.36L188.24 512.91L640 512.91ZM188.24 146.55L640 146.55L640 0L188.24 0L188.24 146.55Z" id="aUvUMSy3s"></path></defs><g><g><g><use xlink:href="#aUvUMSy3s" opacity="1" fill="#000000" fill-opacity="1"></use><g><use xlink:href="#aUvUMSy3s" opacity="1" fill-opacity="0" stroke="#000000" stroke-width="1" stroke-opacity="0"></use></g></g></g></g></svg>