<?xml version="1.0" encoding="UTF-8" standalone="no"?>
<!DOCTYPE svg PUBLIC "-//W3C//DTD SVG 1.1//EN" "http://www.w3.org/Graphics/SVG/1.1/DTD/svg11.dtd">
<svg version="1.1" xmlns="http://www.w3.org/2000/svg" xmlns:xlink="http://www.w3.org/1999/xlink" preserveAspectRatio="xMidYMid meet" viewBox="0 0 640 640" width="20" height="20"><defs><path d="M527.64 100.28C537.81 100.28 546.06 108.53 546.06 118.7C546.06 196.99 546.06 413.43 546.06 491.72C546.06 501.89 537.81 510.14 527.64 510.14C440.62 510.14 197.97 510.14 110.95 510.14C100.78 510.14 92.54 501.89 92.54 491.72C92.54 413.43 92.54 196.99 92.54 118.7C92.54 108.53 100.78 100.28 110.95 100.28C197.97 100.28 440.62 100.28 527.64 100.28Z" id="f2zv60W7uo"></path><path d="M68.57 0C30.7 0 0 29.35 0 65.55C0 113.63 0 498.21 0 546.28C0 582.48 30.7 611.83 68.57 611.83C118.86 611.83 521.14 611.83 571.43 611.83C609.3 611.83 640 582.48 640 546.28C640 498.21 640 113.63 640 65.55C640 29.35 609.3 0 571.43 0C470.86 0 118.86 0 68.57 0ZM137.14 480.72C124.52 480.72 114.29 470.94 114.29 458.87C114.29 446.8 124.52 437.02 137.14 437.02C144 437.02 198.86 437.02 205.71 437.02C218.34 437.02 228.57 446.8 228.57 458.87C228.57 470.94 218.34 480.72 205.71 480.72C192 480.72 144 480.72 137.14 480.72ZM137.14 327.77C124.52 327.77 114.29 317.98 114.29 305.91C114.29 293.85 124.52 284.06 137.14 284.06C144 284.06 198.86 284.06 205.71 284.06C218.34 284.06 228.57 293.85 228.57 305.91C228.57 317.98 218.34 327.77 205.71 327.77C192 327.77 144 327.77 137.14 327.77ZM137.14 174.81C124.52 174.81 114.29 165.03 114.29 152.96C114.29 140.89 124.52 131.11 137.14 131.11C144 131.11 198.86 131.11 205.71 131.11C218.34 131.11 228.57 140.89 228.57 152.96C228.57 165.03 218.34 174.81 205.71 174.81C192 174.81 144 174.81 137.14 174.81ZM297.14 480.72C284.52 480.72 274.29 470.94 274.29 458.87C274.29 446.8 284.52 437.02 297.14 437.02C317.71 437.02 482.29 437.02 502.86 437.02C515.48 437.02 525.71 446.8 525.71 458.87C525.71 470.94 515.48 480.72 502.86 480.72C461.71 480.72 317.71 480.72 297.14 480.72ZM297.14 327.77C284.52 327.77 274.29 317.98 274.29 305.91C274.29 293.85 284.52 284.06 297.14 284.06C317.71 284.06 482.29 284.06 502.86 284.06C515.48 284.06 525.71 293.85 525.71 305.91C525.71 317.98 515.48 327.77 502.86 327.77C461.71 327.77 317.71 327.77 297.14 327.77ZM297.14 174.81C284.52 174.81 274.29 165.03 274.29 152.96C274.29 140.89 284.52 131.11 297.14 131.11C317.71 131.11 482.29 131.11 502.86 131.11C515.48 131.11 525.71 140.89 525.71 152.96C525.71 165.03 515.48 174.81 502.86 174.81C461.71 174.81 317.71 174.81 297.14 174.81Z" id="bjzvz7Col"></path></defs><g><g><g><use xlink:href="#f2zv60W7uo" opacity="1" fill="#ffffff" fill-opacity="1"></use></g><g><use xlink:href="#bjzvz7Col" opacity="1" fill="#000000" fill-opacity="1"></use><g><use xlink:href="#bjzvz7Col" opacity="1" fill-opacity="0" stroke="#000000" stroke-width="1" stroke-opacity="0"></use></g></g></g></g></svg>