<?xml version="1.0" encoding="UTF-8" standalone="no"?>
<!DOCTYPE svg PUBLIC "-//W3C//DTD SVG 1.1//EN" "http://www.w3.org/Graphics/SVG/1.1/DTD/svg11.dtd">
<svg version="1.1" xmlns="http://www.w3.org/2000/svg" xmlns:xlink="http://www.w3.org/1999/xlink" preserveAspectRatio="xMidYMid meet" viewBox="0 0 640 640" width="20" height="20"><defs><path d="M582 25.94C582 25.94 582 25.94 582 25.94C256.39 191.02 75.49 282.73 39.31 301.07C29.01 306.3 24.83 319.01 29.99 329.47C32.93 335.42 38.45 339.62 44.91 340.81C59.27 343.46 131.06 356.7 260.29 380.54C283.79 511.57 296.85 584.36 299.47 598.92C301.07 607.88 308.14 614.79 317.02 616.09C318 616.23 318.99 616.3 319.98 616.3C327.89 616.3 335.13 611.77 338.66 604.6C365.8 549.57 582.87 109.37 610.01 54.34C615.17 43.89 611 31.18 600.69 25.94C594.81 22.95 587.88 22.95 582 25.94Z" id="a3hQi2Sud"></path></defs><g><g><g><use xlink:href="#a3hQi2Sud" opacity="1" fill="#000000" fill-opacity="1"></use><g><use xlink:href="#a3hQi2Sud" opacity="1" fill-opacity="0" stroke="#000000" stroke-width="1" stroke-opacity="0"></use></g></g></g></g></svg>