<?xml version="1.0" encoding="UTF-8" standalone="no"?>
<!DOCTYPE svg PUBLIC "-//W3C//DTD SVG 1.1//EN" "http://www.w3.org/Graphics/SVG/1.1/DTD/svg11.dtd">
<svg version="1.1" xmlns="http://www.w3.org/2000/svg" xmlns:xlink="http://www.w3.org/1999/xlink" preserveAspectRatio="xMidYMid meet" viewBox="0 0 640 640" width="22" height="22"><defs><path d="M606.9 2.42C606.9 2.42 606.9 2.42 606.9 2.42C250.34 180.7 52.25 279.75 12.63 299.55C1.34 305.2 -3.23 318.93 2.42 330.22C5.64 336.65 11.69 341.19 18.76 342.48C34.48 345.34 113.1 359.64 254.61 385.38C280.35 526.89 294.65 605.51 297.51 621.23C299.27 630.9 307.01 638.37 316.74 639.77C317.81 639.93 318.9 640 319.98 640C328.64 640 336.56 635.11 340.44 627.36C370.15 567.93 607.86 92.52 637.57 33.09C643.23 21.81 638.66 8.08 627.37 2.42C620.93 -0.81 613.34 -0.81 606.9 2.42Z" id="a651ZoAKkL"></path></defs><g><g><g><use xlink:href="#a651ZoAKkL" opacity="1" fill="#000000" fill-opacity="1"></use><g><use xlink:href="#a651ZoAKkL" opacity="1" fill-opacity="0" stroke="#000000" stroke-width="1" stroke-opacity="0"></use></g></g></g></g></svg>