<?xml version="1.0" encoding="UTF-8" standalone="no"?>
<!DOCTYPE svg PUBLIC "-//W3C//DTD SVG 1.1//EN" "http://www.w3.org/Graphics/SVG/1.1/DTD/svg11.dtd">
<svg version="1.1" xmlns="http://www.w3.org/2000/svg" xmlns:xlink="http://www.w3.org/1999/xlink" preserveAspectRatio="xMidYMid meet" viewBox="0 0 640 640" width="23" height="23"><defs><path d="M235.43 381.35C236.67 379.59 266.19 337.64 296.22 286.95C338.3 215.92 358.75 166.5 358.75 135.88C358.75 120.34 356.06 105.4 351.13 91.47C330.25 32.52 269.9 -6.64 203.77 0.94C134.5 8.91 81.25 66.68 81.25 135.88C81.25 166.5 101.7 215.92 143.78 286.95C173.81 337.64 203.33 379.59 204.57 381.35C212.02 391.91 227.98 391.91 235.43 381.35ZM278.75 135.88C278.75 167.61 252.4 193.41 220 193.41C187.61 193.41 161.25 167.61 161.25 135.88C161.25 104.16 187.61 78.35 220 78.35C252.4 78.35 278.75 104.16 278.75 135.88Z" id="c7ySkNht9"></path><path d="M401.25 135.88C397.59 136.6 401.25 135.88 401.25 135.88C397.61 156.53 390.29 180.41 378.02 210.06C353.8 268.56 301.83 351.86 266.28 402.22C259.46 411.89 249.77 419.01 238.75 422.82C238.75 438.72 238.75 565.93 238.75 581.83C258.5 577.97 302.55 569.33 401.25 550C401.25 467.18 401.25 218.7 401.25 135.88Z" id="d15UWE7HCU"></path><path d="M438.75 81.63C438.75 112.86 438.75 268.97 438.75 549.97C546.06 570.86 605.67 582.46 617.6 584.78C629.18 587.04 640 578.36 640 566.78C640 523.69 640 178.97 640 135.88C640 127.12 633.68 119.58 624.91 117.87C510.28 95.56 460.54 85.85 438.75 81.63Z" id="baOpOVBeT"></path><path d="M201.25 422.82C190.24 419.01 180.54 411.89 173.72 402.23C172.45 400.42 142.19 357.44 111.35 305.38C84.8 260.56 43.75 187.34 43.75 135.88C43.75 117.96 46.56 100.67 51.75 84.41C48.82 83.84 25.34 79.27 22.41 78.7C10.83 76.45 0 85.12 0 96.71C0 139.8 0 484.51 0 527.6C0 536.36 6.32 543.9 15.1 545.61C130.41 568.06 179.91 577.7 201.25 581.85C201.25 550.05 201.25 454.63 201.25 422.82Z" id="a2jLv1fNeG"></path></defs><g><g><g><use xlink:href="#c7ySkNht9" opacity="1" fill="#ffffff" fill-opacity="1"></use><g><use xlink:href="#c7ySkNht9" opacity="1" fill-opacity="0" stroke="#000000" stroke-width="1" stroke-opacity="0"></use></g></g><g><use xlink:href="#d15UWE7HCU" opacity="1" fill="#ffffff" fill-opacity="1"></use><g><use xlink:href="#d15UWE7HCU" opacity="1" fill-opacity="0" stroke="#000000" stroke-width="1" stroke-opacity="0"></use></g></g><g><use xlink:href="#baOpOVBeT" opacity="1" fill="#ffffff" fill-opacity="1"></use><g><use xlink:href="#baOpOVBeT" opacity="1" fill-opacity="0" stroke="#000000" stroke-width="1" stroke-opacity="0"></use></g></g><g><use xlink:href="#a2jLv1fNeG" opacity="1" fill="#ffffff" fill-opacity="1"></use><g><use xlink:href="#a2jLv1fNeG" opacity="1" fill-opacity="0" stroke="#000000" stroke-width="1" stroke-opacity="0"></use></g></g></g></g></svg>