<?xml version="1.0" encoding="UTF-8" standalone="no"?>
<!DOCTYPE svg PUBLIC "-//W3C//DTD SVG 1.1//EN" "http://www.w3.org/Graphics/SVG/1.1/DTD/svg11.dtd">
<svg version="1.1" xmlns="http://www.w3.org/2000/svg" xmlns:xlink="http://www.w3.org/1999/xlink" preserveAspectRatio="xMidYMid meet" viewBox="0 0 640 640" width="23" height="23"><defs><path d="M200.54 518.25L240.42 518.25L240.42 608.39L200.54 608.39L200.54 518.25Z" id="c1bxz3OsWy"></path><path d="M37.61 88.01L438.75 88.01L438.75 573.93L37.61 573.93L37.61 88.01Z" id="b7PUf3L9N"></path><path d="M292.4 142.08C292.4 186 258.7 221.66 217.18 221.66C175.67 221.66 141.96 186 141.96 142.08C141.96 98.16 175.67 62.5 217.18 62.5C258.7 62.5 292.4 98.16 292.4 142.08Z" id="b7dGxxVXW4"></path><path d="M235.43 398.74C236.67 396.9 266.19 353.04 296.22 300.04C338.3 225.76 358.75 174.1 358.75 142.08C358.75 125.82 356.06 110.2 351.13 95.64C330.25 34 269.9 -6.94 203.77 0.98C134.5 9.32 81.25 69.72 81.25 142.08C81.25 174.1 101.7 225.76 143.78 300.04C173.81 353.04 203.33 396.9 204.57 398.74C212.02 409.79 227.98 409.78 235.43 398.74ZM278.75 142.08C278.75 175.25 252.4 202.24 220 202.24C187.61 202.24 161.25 175.25 161.25 142.08C161.25 108.91 187.61 81.92 220 81.92C252.4 81.92 278.75 108.91 278.75 142.08Z" id="d98mwbyJLk"></path><path d="M438.75 85.36C438.75 118 438.75 281.24 438.75 575.06C546.06 596.9 605.67 609.03 617.6 611.46C629.18 613.81 640 604.74 640 592.63C640 547.57 640 187.13 640 142.08C640 132.92 633.68 125.03 624.91 123.25C510.28 99.92 460.54 89.77 438.75 85.36Z" id="aEa0L0YXB"></path><path d="M201.25 442.11C190.24 438.12 180.54 430.68 173.72 420.57C172.45 418.69 142.19 373.75 111.35 319.31C84.8 272.45 43.75 195.88 43.75 142.08C43.75 123.34 46.55 105.26 51.75 88.26C48.82 87.66 25.34 82.88 22.4 82.29C10.83 79.94 0 89 0 101.12C0 146.17 0 506.61 0 551.67C0 560.83 6.32 568.71 15.09 570.5C130.41 593.97 179.91 604.05 201.25 608.39C201.25 575.13 201.25 475.37 201.25 442.11Z" id="f3jOcBblBk"></path><path d="M401.25 142.08C397.59 142.83 401.25 142.08 401.25 142.08C397.61 163.67 390.29 188.64 378.02 219.64C353.8 280.81 301.83 367.91 266.28 420.57C259.46 430.68 249.77 438.12 238.75 442.11C238.75 458.74 238.75 591.74 238.75 608.37C258.5 604.33 302.55 595.3 401.25 575.09C401.25 488.49 401.25 228.68 401.25 142.08Z" id="b12vSMoI0R"></path></defs><g><g><g><use xlink:href="#c1bxz3OsWy" opacity="1" fill="#ffffff" fill-opacity="1"></use></g><g><use xlink:href="#b7PUf3L9N" opacity="1" fill="#ffffff" fill-opacity="1"></use></g><g><use xlink:href="#b7dGxxVXW4" opacity="1" fill="#ffffff" fill-opacity="1"></use></g><g><use xlink:href="#d98mwbyJLk" opacity="1" fill="#000000" fill-opacity="1"></use><g><use xlink:href="#d98mwbyJLk" opacity="1" fill-opacity="0" stroke="#000000" stroke-width="1" stroke-opacity="0"></use></g></g><g><use xlink:href="#aEa0L0YXB" opacity="1" fill="#000000" fill-opacity="1"></use><g><use xlink:href="#aEa0L0YXB" opacity="1" fill-opacity="0" stroke="#000000" stroke-width="1" stroke-opacity="0"></use></g></g><g><use xlink:href="#f3jOcBblBk" opacity="1" fill="#000000" fill-opacity="1"></use><g><use xlink:href="#f3jOcBblBk" opacity="1" fill-opacity="0" stroke="#000000" stroke-width="1" stroke-opacity="0"></use></g></g><g><use xlink:href="#b12vSMoI0R" opacity="1" fill="#000000" fill-opacity="1"></use><g><use xlink:href="#b12vSMoI0R" opacity="1" fill-opacity="0" stroke="#000000" stroke-width="1" stroke-opacity="0"></use></g></g></g></g></svg>