<?xml version="1.0" encoding="UTF-8" standalone="no"?>
<!DOCTYPE svg PUBLIC "-//W3C//DTD SVG 1.1//EN" "http://www.w3.org/Graphics/SVG/1.1/DTD/svg11.dtd">
<svg version="1.1" xmlns="http://www.w3.org/2000/svg" xmlns:xlink="http://www.w3.org/1999/xlink" preserveAspectRatio="xMidYMid meet" viewBox="0 0 640 640" width="40" height="40"><defs><path d="M246.15 375.39C242.76 375.39 240 378.15 240 381.54C240 383.59 240 393.85 240 412.31C258.46 412.31 268.72 412.31 270.77 412.31C274.16 412.31 276.92 409.55 276.92 406.15C276.92 403.69 276.92 384 276.92 381.54C276.92 378.15 274.16 375.39 270.77 375.39C265.85 375.39 248.62 375.39 246.15 375.39Z" id="a1vkyRvxC"></path><path d="M123.08 375.39C119.68 375.39 116.92 378.15 116.92 381.54C116.92 391.38 116.92 470.15 116.92 480C116.92 483.39 119.68 486.15 123.08 486.15C125.54 486.15 145.23 486.15 147.69 486.15C151.09 486.15 153.85 483.39 153.85 480C153.85 470.15 153.85 391.38 153.85 381.54C153.85 378.15 151.08 375.39 147.69 375.39C142.77 375.39 125.54 375.39 123.08 375.39Z" id="j35gBTVMMw"></path><path d="M523.09 252.31C433.38 184.79 383.54 147.28 373.57 139.78C382.41 128.33 387.69 114.01 387.69 98.46C387.69 61.14 357.32 30.77 320 30.77C282.67 30.77 252.31 61.14 252.31 98.46C252.31 114.01 257.59 128.33 266.43 139.77C256.46 147.28 206.62 184.79 116.9 252.31C79.99 252.31 59.49 252.31 55.39 252.31C24.85 252.31 0 277.15 0 307.69C0 332.31 0 529.23 0 553.85C0 584.39 24.85 609.23 55.39 609.23C108.31 609.23 531.69 609.23 584.62 609.23C615.16 609.23 640 584.39 640 553.85C640 529.23 640 332.31 640 307.69C640 277.15 615.16 252.31 584.62 252.31C576.41 252.31 555.9 252.31 523.09 252.31ZM320 166.15C327.78 166.15 335.25 164.82 342.22 162.39C350.18 168.38 390.01 198.36 461.69 252.31L178.31 252.31L297.78 162.39C307.41 164.9 314.81 166.15 320 166.15ZM147.69 523.08C145.23 523.08 125.54 523.08 123.08 523.08C99.32 523.08 80 503.75 80 480C80 470.15 80 391.38 80 381.54C80 357.79 99.32 338.46 123.08 338.46C125.54 338.46 145.23 338.46 147.69 338.46C171.45 338.46 190.77 357.79 190.77 381.54C190.77 388.1 190.77 420.92 190.77 480C177.89 508.72 163.53 523.08 147.69 523.08ZM270.77 449.23C268.72 449.23 258.46 449.23 240 449.23C240 482.46 240 500.92 240 504.62C240 514.81 231.73 523.08 221.54 523.08C211.34 523.08 203.08 514.81 203.08 504.62C203.08 492.31 203.08 393.85 203.08 381.54C203.08 357.79 222.4 338.46 246.15 338.46C248.62 338.46 268.31 338.46 270.77 338.46C294.52 338.46 313.85 357.79 313.85 381.54C313.85 383.18 313.85 391.38 313.85 406.15C300.96 434.87 286.6 449.23 270.77 449.23ZM412.31 430.77C412.31 440.97 404.04 449.23 393.85 449.23C391.79 449.23 381.54 449.23 363.08 449.23L363.08 486.15C396.31 486.15 414.77 486.15 418.46 486.15C428.66 486.15 436.92 494.42 436.92 504.61C436.92 514.81 428.66 523.08 418.46 523.08C411.08 523.08 352 523.08 344.62 523.08C334.42 523.08 326.15 514.81 326.15 504.61C326.15 489.84 326.15 371.69 326.15 356.92C326.15 346.73 334.42 338.46 344.62 338.46C352 338.46 411.08 338.46 418.46 338.46C428.66 338.46 436.92 346.73 436.92 356.92C436.92 367.12 428.66 375.38 418.46 375.38C414.77 375.38 396.31 375.38 363.08 375.38L363.08 412.31L393.85 412.31C406.15 417.82 412.31 423.97 412.31 430.77ZM545.78 522.58C544.37 522.92 542.94 523.08 541.53 523.08C534.67 523.08 528.21 519.23 525.03 512.87C522.43 507.69 509.48 481.77 486.15 435.13C486.15 476.82 486.15 499.98 486.15 504.62C486.15 514.81 477.89 523.08 467.69 523.08C457.5 523.08 449.23 514.81 449.23 504.62C449.23 489.85 449.23 371.69 449.23 356.92C449.23 348.36 455.12 340.92 463.45 338.96C471.78 336.99 480.38 341.01 484.21 348.67C486.8 353.85 499.75 379.76 523.08 426.41C523.08 384.72 523.08 361.56 523.08 356.92C523.08 346.73 531.34 338.46 541.54 338.46C551.73 338.46 560 346.73 560 356.92C560 366.77 560 416 560 504.62C556.08 515.28 551.34 521.27 545.78 522.58Z" id="a3aSYd6Ic3"></path></defs><g><g><g><use xlink:href="#a1vkyRvxC" opacity="1" fill="#ffffff" fill-opacity="1"></use><g><use xlink:href="#a1vkyRvxC" opacity="1" fill-opacity="0" stroke="#000000" stroke-width="1" stroke-opacity="0"></use></g></g><g><use xlink:href="#j35gBTVMMw" opacity="1" fill="#ffffff" fill-opacity="1"></use><g><use xlink:href="#j35gBTVMMw" opacity="1" fill-opacity="0" stroke="#000000" stroke-width="1" stroke-opacity="0"></use></g></g><g><use xlink:href="#a3aSYd6Ic3" opacity="1" fill="#ffffff" fill-opacity="1"></use><g><use xlink:href="#a3aSYd6Ic3" opacity="1" fill-opacity="0" stroke="#000000" stroke-width="1" stroke-opacity="0"></use></g></g></g></g></svg>