<?xml version="1.0" encoding="UTF-8" standalone="no"?>
<!DOCTYPE svg PUBLIC "-//W3C//DTD SVG 1.1//EN" "http://www.w3.org/Graphics/SVG/1.1/DTD/svg11.dtd">
<svg version="1.1" xmlns="http://www.w3.org/2000/svg" xmlns:xlink="http://www.w3.org/1999/xlink" preserveAspectRatio="xMidYMid meet" viewBox="0 0 640 640" width="20" height="20"><defs><path d="M587.23 49.37C580.57 49.37 574.8 51.81 569.93 56.67C564.93 61.63 524.95 101.31 519.95 106.27C492.52 80.38 461.12 60.32 425.75 46.1C390.38 31.88 353.97 24.77 316.54 24.77C246.05 24.77 184.53 46.1 131.98 88.78C79.43 131.45 44.83 187.12 28.17 255.8C28.17 256.07 28.17 258.22 28.17 258.49C28.17 261.82 29.38 264.71 31.82 267.14C34.26 269.58 37.14 270.79 40.47 270.79C48.12 270.79 109.33 270.79 116.98 270.79C122.63 270.79 126.47 267.84 128.52 261.95C139.28 236.33 146.07 221.34 148.9 216.98C166.84 187.76 190.68 164.82 220.41 148.16C250.15 131.51 282.19 123.18 316.54 123.18C368.06 123.18 412.79 140.73 450.73 175.84C445.43 181.15 402.97 223.58 397.66 228.89C392.81 233.76 390.36 239.53 390.36 246.19C390.36 252.86 392.8 258.62 397.66 263.49C402.54 268.36 408.31 270.79 414.97 270.79C432.2 270.79 570 270.79 587.23 270.79C593.89 270.79 599.66 268.36 604.53 263.49C609.4 258.62 611.83 252.86 611.83 246.19C611.83 228.97 611.83 91.19 611.83 73.97C611.83 67.31 609.41 61.54 604.53 56.67C599.67 51.81 593.9 49.37 587.23 49.37Z" id="j44rFUOd8L"></path><path d="M523.01 369.21C517.37 369.21 513.52 372.16 511.48 378.05C500.72 403.68 493.92 418.67 491.1 423.03C473.16 452.23 449.32 475.18 419.59 491.84C389.85 508.5 357.81 516.82 323.46 516.82C298.6 516.82 274.63 512.21 251.56 502.99C228.49 493.76 207.86 480.68 189.66 463.77C194.93 458.5 237.07 416.37 242.34 411.11C247.2 406.24 249.64 400.47 249.64 393.81C249.64 387.14 247.2 381.37 242.34 376.51C237.47 371.63 231.7 369.2 225.04 369.2C207.81 369.2 70 369.2 52.78 369.2C46.11 369.2 40.34 371.63 35.47 376.51C30.6 381.37 28.17 387.15 28.17 393.81C28.17 411.03 28.17 548.81 28.17 566.03C28.17 572.69 30.6 578.46 35.47 583.33C40.35 588.19 46.11 590.64 52.78 590.64C59.44 590.64 65.21 588.19 70.08 583.33C75.04 578.37 114.72 538.69 119.68 533.73C147.11 559.87 178.32 579.99 213.31 594.09C248.3 608.19 284.51 615.23 321.93 615.23C392.17 615.23 453.43 593.89 505.72 551.23C558.01 508.56 592.36 452.88 608.77 384.2C609.03 383.68 609.15 382.79 609.15 381.51C609.15 378.17 607.93 375.3 605.49 372.86C603.05 370.43 600.17 369.21 596.83 369.21C582.07 369.21 530.39 369.21 523.01 369.21Z" id="b1pkcJoACj"></path></defs><g><g><g><use xlink:href="#j44rFUOd8L" opacity="1" fill="#000000" fill-opacity="1"></use><g><use xlink:href="#j44rFUOd8L" opacity="1" fill-opacity="0" stroke="#000000" stroke-width="1" stroke-opacity="0"></use></g></g><g><use xlink:href="#b1pkcJoACj" opacity="1" fill="#000000" fill-opacity="1"></use><g><use xlink:href="#b1pkcJoACj" opacity="1" fill-opacity="0" stroke="#000000" stroke-width="1" stroke-opacity="0"></use></g></g></g></g></svg>