<?xml version="1.0" encoding="UTF-8"?>
<!DOCTYPE svg  PUBLIC '-//W3C//DTD SVG 1.1//EN'  'http://www.w3.org/Graphics/SVG/1.1/DTD/svg11.dtd'>
<svg width="30px" height="30px" enable-background="new 0 0 263.345 263.345" version="1.1" viewBox="0 0 263.34 263.34" xml:space="preserve" xmlns="http://www.w3.org/2000/svg">
	<circle transform="matrix(.71 0 0 .71 41.76 41.76)" cx="144" cy="144" r="144" fill="#fff"/>
	<g fill="#e61d1d">
<path class="color000 svgShape" d="m115.16 116.72 3.771 1.263-3.717-31.533-5.407 4.915c5.005 7.364 6.989 16.49 5.353 25.355zm-9.094-3.038c0.707-5.535-0.497-11.136-3.351-15.873l-11.861 10.788 15.212 5.085zm54.859-13.759c-6.548 11.875-2.221 26.861 9.661 33.41 3.631 2.004 7.729 3.064 11.85 3.064 8.97 0 17.235-4.875 21.562-12.723 6.549-11.875 2.218-26.864-9.665-33.414-3.631-2.002-7.729-3.064-11.845-3.064-0.08 0-0.159 0.014-0.243 0.014l4.854 23.632c0.523 2.562-1.129 5.062-3.687 5.586-0.322 0.068-0.645 0.096-0.957 0.096-2.198 0-4.172-1.542-4.634-3.78l-4.845-23.632c-5.045 2.112-9.326 5.868-12.051 10.811z"/><path class="color000 svgShape" d="m69.817 132.06c3.631 2.007 7.731 3.062 11.852 3.062 8.87 0 17.033-4.772 21.396-12.461l-22.869-7.647c-1.592-0.53-2.787-1.869-3.129-3.512-0.345-1.645 0.205-3.346 1.447-4.478l17.84-16.22c-0.88-0.656-1.792-1.276-2.782-1.815-3.631-2.002-7.731-3.064-11.847-3.064-8.975 0-17.238 4.875-21.562 12.727-6.557 11.869-2.224 26.857 9.654 33.408z"/><polygon class="color000 svgShape" points="158.4 69.115 124.02 80.05 127.77 112.09"/><path class="color000 svgShape" d="m29.758 133.78c0.665 1.848 6.611 18.291 10.725 25.245 21.032 39.996 49.875 74.216 85.737 101.75 0.651 0.757 1.458 1.382 2.38 1.835 0.812 0.4 1.691 0.635 2.585 0.695 0.233 0.027 0.474 0.037 0.707 0.037 1.185 0 2.384-0.294 3.479-0.85 0.777-0.392 1.459-0.934 2.028-1.577 80.218-61.429 95.848-125.82 96.426-128.33 2.367-9.033 3.57-18.071 3.57-26.864 1e-3 -58.296-47.426-105.72-105.72-105.72-58.297 0-105.72 47.427-105.72 105.73 0 8.641 1.148 17.48 3.417 26.29 0.053 0.597 0.182 1.19 0.392 1.764zm68.379-53.081c1.92 1.06 3.685 2.294 5.316 3.645l10.394-9.448-1.176-9.974h-6.438c-2.915 0-5.281-2.366-5.281-5.281 0-2.914 2.366-5.28 5.281-5.28h20.15c2.915 0 5.281 2.366 5.281 5.28 0 2.915-2.366 5.281-5.281 5.281h-4.186l0.653 5.572 43.453-13.821-0.612-2.978c-4.162 1.668-10.006 3.323-15.84 2.644-2.6-0.301-4.457-2.653-4.153-5.248 0.299-2.595 2.665-4.452 5.246-4.154 7.309 0.833 15.611-4.132 15.7-4.182 1.311-0.803 2.939-0.913 4.35-0.294 1.409 0.616 2.436 1.872 2.753 3.383l6.558 31.972c0.724-0.049 1.442-0.072 2.175-0.072 5.712 0 11.393 1.468 16.423 4.238 16.442 9.073 22.439 29.827 13.376 46.271-5.992 10.851-17.427 17.6-29.846 17.6-5.712 0-11.393-1.466-16.423-4.237-16.442-9.071-22.449-29.825-13.376-46.27 4.083-7.4 10.688-12.886 18.406-15.633l-1.913-9.334-40.765 57.195c-0.019 0.03-0.049 0.049-0.068 0.077-0.023 0.035-0.042 0.077-0.072 0.11-0.114 0.145-0.252 0.268-0.38 0.401-0.082 0.082-0.154 0.177-0.245 0.254l-4e-3 4e-3c-9e-3 9e-3 -0.019 0.014-0.028 0.019-0.178 0.149-0.374 0.278-0.569 0.401-0.054 0.035-0.096 0.073-0.147 0.105-0.04 0.019-0.077 0.032-0.117 0.054-0.095 0.051-0.196 0.086-0.296 0.128-0.214 0.096-0.434 0.182-0.663 0.243-0.126 0.035-0.254 0.063-0.382 0.086-0.11 0.021-0.215 0.059-0.329 0.072-0.182 0.019-0.364 0.028-0.542 0.028h-9e-3 -5e-3c-0.296 0-0.588-0.028-0.87-0.08-0.17-0.035-0.339-0.091-0.507-0.145h-4e-3c-0.038-9e-3 -0.077-5e-3 -0.114-0.019l-10.863-3.633c-0.21 0.427-0.392 0.861-0.621 1.281-5.995 10.868-17.429 17.616-29.851 17.616-5.712 0-11.39-1.47-16.421-4.237-16.444-9.07-22.448-29.827-13.376-46.272 5.993-10.867 17.43-17.616 29.849-17.616 5.701 8e-3 11.378 1.471 16.409 4.248z"/>
	</g>
</svg>
