<svg id="SvgjsSvg1001" width="288" height="288" xmlns="http://www.w3.org/2000/svg" version="1.1" xmlns:xlink="http://www.w3.org/1999/xlink" xmlns:svgjs="http://svgjs.com/svgjs">
<circle id="SvgjsCircle1012" r="144" cx="144" cy="144" fill="#ffffff" transform="matrix(0.9167,0,0,0.9167,11.995200000000011,11.995200000000011)"></circle><defs id="SvgjsDefs1002"></defs><g id="SvgjsG1008" transform="matrix(0.9800000000000001,0,0,0.9800000000000001,2.8799999999999955,2.8799932861327875)"><svg xmlns="http://www.w3.org/2000/svg" enable-background="new 0 0 426.667 426.667" viewBox="0 0 426.667 426.667" width="288" height="288"><path d="M213.333,106.667c-58.88,0-106.667,47.787-106.667,106.667S154.453,320,213.333,320S320,272.213,320,213.333
				S272.213,106.667,213.333,106.667z" fill="#000000" class="color000 svgShape"></path><path d="M213.333,0C95.467,0,0,95.467,0,213.333s95.467,213.333,213.333,213.333S426.667,331.2,426.667,213.333
				S331.2,0,213.333,0z M213.333,384c-94.293,0-170.667-76.373-170.667-170.667S119.04,42.667,213.333,42.667
				S384,119.04,384,213.333S307.627,384,213.333,384z" fill="#000000" class="color000 svgShape"></path></svg></g></svg>