<?xml version="1.0" encoding="UTF-8" standalone="no"?>
<!DOCTYPE svg PUBLIC "-//W3C//DTD SVG 1.1//EN" "http://www.w3.org/Graphics/SVG/1.1/DTD/svg11.dtd">
<svg version="1.1" xmlns="http://www.w3.org/2000/svg" xmlns:xlink="http://www.w3.org/1999/xlink" preserveAspectRatio="xMidYMid meet" viewBox="0 0 640 640" width="30" height="30"><defs><path d="M82.69 235.16C82.69 320.47 188.94 389.62 320 389.62C451.06 389.62 557.31 320.47 557.31 235.16C557.31 149.84 451.06 80.69 320 80.69C188.94 80.69 82.69 149.84 82.69 235.16Z" id="bIkgk1zgp"></path><path d="M82.69 235.16C82.69 320.47 188.94 389.62 320 389.62C451.06 389.62 557.31 320.47 557.31 235.16C557.31 149.84 451.06 80.69 320 80.69C188.94 80.69 82.69 149.84 82.69 235.16Z" id="cFjBzVQJN"></path><path d="M278.68 210.09C270.92 217.27 266.62 221.24 265.74 222.04C277.72 239.93 282.46 262.11 278.55 283.67C279.75 284.07 282.74 285.09 287.55 286.73C285.78 271.4 279.57 217.75 278.68 210.09ZM220.47 263.91C224.1 265.15 253.17 275.03 256.81 276.27C256.02 258.24 253.35 245.38 248.81 237.71C246.91 239.44 237.47 248.18 220.47 263.91ZM439.31 331.49C460.74 331.49 480.5 319.62 490.83 300.56C506.48 271.69 496.14 235.27 467.74 219.36C459.06 214.49 449.27 211.91 439.44 211.91C439.24 211.91 439.05 211.93 438.85 211.93C440.01 217.69 449.29 263.62 450.45 269.38C451.7 275.6 447.77 281.67 441.65 282.96C440.88 283.11 440.1 283.18 439.35 283.18C434.11 283.18 429.39 279.44 428.27 274C427.12 268.24 417.87 222.31 416.71 216.56C404.65 221.69 394.43 230.82 387.91 242.84C372.27 271.69 382.6 308.11 410.99 324.02C419.66 328.91 429.45 331.49 439.31 331.49Z" id="abBfySgOV"></path><path d="M278.68 210.09C270.92 217.27 266.62 221.24 265.74 222.04C277.72 239.93 282.46 262.11 278.55 283.67C279.75 284.07 282.74 285.09 287.55 286.73C285.78 271.4 279.57 217.75 278.68 210.09ZM220.47 263.91C224.1 265.15 253.17 275.03 256.81 276.27C256.02 258.24 253.35 245.38 248.81 237.71C246.91 239.44 237.47 248.18 220.47 263.91ZM439.31 331.49C460.74 331.49 480.5 319.62 490.83 300.56C506.48 271.69 496.14 235.27 467.74 219.36C459.06 214.49 449.27 211.91 439.44 211.91C439.24 211.91 439.05 211.93 438.85 211.93C440.01 217.69 449.29 263.62 450.45 269.38C451.7 275.6 447.77 281.67 441.65 282.96C440.88 283.11 440.1 283.18 439.35 283.18C434.11 283.18 429.39 279.44 428.27 274C427.12 268.24 417.87 222.31 416.71 216.56C404.65 221.69 394.43 230.82 387.91 242.84C372.27 271.69 382.6 308.11 410.99 324.02C419.66 328.91 429.45 331.49 439.31 331.49Z" id="a3nXrxjlza"></path><path d="M249.64 298.09C244.18 296.24 200.47 281.38 194.99 279.51C191.19 278.22 188.35 274.98 187.51 270.98C186.68 266.98 188.02 262.84 190.97 260.09C195.25 256.16 229.34 224.62 233.6 220.69C231.5 219.09 229.34 217.58 226.96 216.27C218.28 211.4 208.49 208.82 198.66 208.82C177.2 208.82 157.45 220.67 147.13 239.76C131.44 268.6 141.8 305.02 170.19 320.93C178.86 325.82 188.67 328.38 198.53 328.38C219.72 328.38 239.22 316.78 249.64 298.09Z" id="k6InA6owC"></path><path d="M249.64 298.09C244.18 296.24 200.47 281.38 194.99 279.51C191.19 278.22 188.35 274.98 187.51 270.98C186.68 266.98 188.02 262.84 190.97 260.09C195.25 256.16 229.34 224.62 233.6 220.69C231.5 219.09 229.34 217.58 226.96 216.27C218.28 211.4 208.49 208.82 198.66 208.82C177.2 208.82 157.45 220.67 147.13 239.76C131.44 268.6 141.8 305.02 170.19 320.93C178.86 325.82 188.67 328.38 198.53 328.38C219.72 328.38 239.22 316.78 249.64 298.09Z" id="a4Gmei96"></path><path d="M308.7 272.4L381.88 167.98L299.72 194.53L308.7 272.4Z" id="b11l1FNfZq"></path><path d="M308.7 272.4L381.88 167.98L299.72 194.53L308.7 272.4Z" id="c1z1qD68Wc"></path><path d="M306.98 633.76C308.53 635.6 310.45 637.11 312.66 638.22C314.6 639.2 316.7 639.76 318.84 639.91C319.39 639.98 319.96 640 320.52 640C323.37 640 326.23 639.29 328.83 637.93C330.69 636.98 332.32 635.67 333.68 634.11C525.38 484.82 562.73 328.33 564.12 322.22C569.76 300.27 572.65 278.31 572.65 256.93C572.65 115.27 459.3 0 320 0C180.7 0 67.35 115.27 67.35 256.96C67.35 277.96 70.09 299.42 75.5 320.84C75.64 322.29 75.94 323.73 76.44 325.13C78.04 329.62 92.24 369.58 102.08 386.49C152.33 483.69 221.28 566.84 306.98 633.76ZM277.41 182.02C277.13 179.6 274.87 160.2 274.59 157.78C265.35 157.78 260.24 157.78 259.21 157.78C252.24 157.78 246.58 152.02 246.58 144.96C246.58 137.87 252.24 132.11 259.21 132.11C264.02 132.11 302.54 132.11 307.35 132.11C314.32 132.11 319.98 137.87 319.98 144.96C319.98 152.02 314.32 157.78 307.35 157.78C306.69 157.78 303.35 157.78 297.36 157.78C297.47 158.68 297.98 163.2 298.91 171.33C361.22 151.17 395.83 139.97 402.75 137.73C401.88 133.4 401.4 130.98 401.29 130.49C391.34 134.56 377.38 138.58 363.44 136.93C357.23 136.2 352.8 130.47 353.52 124.18C354.24 117.87 359.88 113.36 366.06 114.07C383.52 116.09 403.36 104.02 403.58 103.91C406.71 101.96 410.6 101.69 413.96 103.2C417.33 104.69 419.8 107.76 420.54 111.42C422.11 119.18 434.65 181.36 436.23 189.11C437.95 189 439.66 188.93 441.41 188.93C455.06 188.93 468.63 192.51 480.65 199.24C519.96 221.29 534.27 271.73 512.62 311.69C498.31 338.07 470.97 354.47 441.3 354.47C427.66 354.47 414.07 350.91 402.05 344.18C362.76 322.13 348.41 271.69 370.08 231.71C379.85 213.73 395.63 200.4 414.07 193.73C413.76 192.22 412.26 184.64 409.5 171.04C351.05 254.44 318.58 300.78 312.09 310.04C312.05 310.11 311.98 310.16 311.91 310.22C311.87 310.31 311.83 310.42 311.76 310.49C311.48 310.84 311.15 311.16 310.84 311.47C310.65 311.67 310.47 311.91 310.25 312.09C310.25 312.09 310.25 312.09 310.25 312.11C310.23 312.13 310.21 312.13 310.19 312.16C309.75 312.51 309.29 312.82 308.83 313.11C308.7 313.2 308.59 313.29 308.46 313.38C308.38 313.42 308.29 313.44 308.2 313.51C307.96 313.62 307.72 313.71 307.48 313.82C306.98 314.04 306.45 314.27 305.91 314.4C305.6 314.49 305.29 314.56 304.99 314.62C304.73 314.67 304.46 314.76 304.2 314.8C303.76 314.84 303.33 314.87 302.91 314.87C302.89 314.87 302.89 314.87 302.89 314.87C302.89 314.87 302.89 314.87 302.89 314.87C302.89 314.87 302.89 314.87 302.89 314.87L302.89 314.87L302.89 314.87C302.89 314.87 302.89 314.87 302.89 314.87C302.87 314.87 302.87 314.87 302.87 314.87C302.17 314.87 301.47 314.8 300.79 314.67C300.38 314.58 299.98 314.44 299.59 314.31C299.59 314.31 299.57 314.31 299.57 314.31C299.48 314.29 299.39 314.31 299.31 314.27C296.71 313.38 275.95 306.31 273.35 305.44C272.84 306.47 272.41 307.53 271.86 308.56C257.53 334.96 230.21 351.36 200.52 351.36C186.88 351.36 173.31 347.8 161.27 341.07C121.98 319.02 107.63 268.58 129.32 228.62C143.64 202.2 170.97 185.8 200.65 185.8C214.26 185.82 227.83 189.38 239.85 196.13C244.44 198.71 248.66 201.71 252.57 204.98C254.23 203.44 262.51 195.8 277.41 182.02Z" id="b2i4nPWYo"></path><path d="M306.98 633.76C308.53 635.6 310.45 637.11 312.66 638.22C314.6 639.2 316.7 639.76 318.84 639.91C319.39 639.98 319.96 640 320.52 640C323.37 640 326.23 639.29 328.83 637.93C330.69 636.98 332.32 635.67 333.68 634.11C525.38 484.82 562.73 328.33 564.12 322.22C569.76 300.27 572.65 278.31 572.65 256.93C572.65 115.27 459.3 0 320 0C180.7 0 67.35 115.27 67.35 256.96C67.35 277.96 70.09 299.42 75.5 320.84C75.64 322.29 75.94 323.73 76.44 325.13C78.04 329.62 92.24 369.58 102.08 386.49C152.33 483.69 221.28 566.84 306.98 633.76ZM277.41 182.02C277.13 179.6 274.87 160.2 274.59 157.78C265.35 157.78 260.24 157.78 259.21 157.78C252.24 157.78 246.58 152.02 246.58 144.96C246.58 137.87 252.24 132.11 259.21 132.11C264.02 132.11 302.54 132.11 307.35 132.11C314.32 132.11 319.98 137.87 319.98 144.96C319.98 152.02 314.32 157.78 307.35 157.78C306.69 157.78 303.35 157.78 297.36 157.78C297.47 158.68 297.98 163.2 298.91 171.33C361.22 151.17 395.83 139.97 402.75 137.73C401.88 133.4 401.4 130.98 401.29 130.49C391.34 134.56 377.38 138.58 363.44 136.93C357.23 136.2 352.8 130.47 353.52 124.18C354.24 117.87 359.88 113.36 366.06 114.07C383.52 116.09 403.36 104.02 403.58 103.91C406.71 101.96 410.6 101.69 413.96 103.2C417.33 104.69 419.8 107.76 420.54 111.42C422.11 119.18 434.65 181.36 436.23 189.11C437.95 189 439.66 188.93 441.41 188.93C455.06 188.93 468.63 192.51 480.65 199.24C519.96 221.29 534.27 271.73 512.62 311.69C498.31 338.07 470.97 354.47 441.3 354.47C427.66 354.47 414.07 350.91 402.05 344.18C362.76 322.13 348.41 271.69 370.08 231.71C379.85 213.73 395.63 200.4 414.07 193.73C413.76 192.22 412.26 184.64 409.5 171.04C351.05 254.44 318.58 300.78 312.09 310.04C312.05 310.11 311.98 310.16 311.91 310.22C311.87 310.31 311.83 310.42 311.76 310.49C311.48 310.84 311.15 311.16 310.84 311.47C310.65 311.67 310.47 311.91 310.25 312.09C310.25 312.09 310.25 312.09 310.25 312.11C310.23 312.13 310.21 312.13 310.19 312.16C309.75 312.51 309.29 312.82 308.83 313.11C308.7 313.2 308.59 313.29 308.46 313.38C308.38 313.42 308.29 313.44 308.2 313.51C307.96 313.62 307.72 313.71 307.48 313.82C306.98 314.04 306.45 314.27 305.91 314.4C305.6 314.49 305.29 314.56 304.99 314.62C304.73 314.67 304.46 314.76 304.2 314.8C303.76 314.84 303.33 314.87 302.91 314.87C302.89 314.87 302.89 314.87 302.89 314.87C302.89 314.87 302.89 314.87 302.89 314.87C302.89 314.87 302.89 314.87 302.89 314.87L302.89 314.87L302.89 314.87C302.89 314.87 302.89 314.87 302.89 314.87C302.87 314.87 302.87 314.87 302.87 314.87C302.17 314.87 301.47 314.8 300.79 314.67C300.38 314.58 299.98 314.44 299.59 314.31C299.59 314.31 299.57 314.31 299.57 314.31C299.48 314.29 299.39 314.31 299.31 314.27C296.71 313.38 275.95 306.31 273.35 305.44C272.84 306.47 272.41 307.53 271.86 308.56C257.53 334.96 230.21 351.36 200.52 351.36C186.88 351.36 173.31 347.8 161.27 341.07C121.98 319.02 107.63 268.58 129.32 228.62C143.64 202.2 170.97 185.8 200.65 185.8C214.26 185.82 227.83 189.38 239.85 196.13C244.44 198.71 248.66 201.71 252.57 204.98C254.23 203.44 262.51 195.8 277.41 182.02Z" id="c3KqnW7Uvu"></path></defs><g><g><g><use xlink:href="#bIkgk1zgp" opacity="1" fill="#ffffff" fill-opacity="1"></use><g><use xlink:href="#bIkgk1zgp" opacity="1" fill-opacity="0" stroke="#000000" stroke-width="1" stroke-opacity="0"></use></g></g><g><use xlink:href="#cFjBzVQJN" opacity="1" fill="#000000" fill-opacity="0"></use><g><use xlink:href="#cFjBzVQJN" opacity="1" fill-opacity="0" stroke="#000000" stroke-width="1" stroke-opacity="0"></use></g></g><g><use xlink:href="#abBfySgOV" opacity="1" fill="#28a745" fill-opacity="1"></use><g><use xlink:href="#abBfySgOV" opacity="1" fill-opacity="0" stroke="#000000" stroke-width="1" stroke-opacity="0"></use></g></g><g><use xlink:href="#a3nXrxjlza" opacity="1" fill="#000000" fill-opacity="0"></use><g><use xlink:href="#a3nXrxjlza" opacity="1" fill-opacity="0" stroke="#000000" stroke-width="1" stroke-opacity="0"></use></g></g><g><use xlink:href="#k6InA6owC" opacity="1" fill="#28a745" fill-opacity="1"></use><g><use xlink:href="#k6InA6owC" opacity="1" fill-opacity="0" stroke="#000000" stroke-width="1" stroke-opacity="0"></use></g></g><g><use xlink:href="#a4Gmei96" opacity="1" fill="#000000" fill-opacity="0"></use><g><use xlink:href="#a4Gmei96" opacity="1" fill-opacity="0" stroke="#000000" stroke-width="1" stroke-opacity="0"></use></g></g><g><use xlink:href="#b11l1FNfZq" opacity="1" fill="#28a745" fill-opacity="1"></use><g><use xlink:href="#b11l1FNfZq" opacity="1" fill-opacity="0" stroke="#000000" stroke-width="1" stroke-opacity="0"></use></g></g><g><use xlink:href="#c1z1qD68Wc" opacity="1" fill="#000000" fill-opacity="0"></use><g><use xlink:href="#c1z1qD68Wc" opacity="1" fill-opacity="0" stroke="#000000" stroke-width="1" stroke-opacity="0"></use></g></g><g><use xlink:href="#b2i4nPWYo" opacity="1" fill="#28a745" fill-opacity="1"></use><g><use xlink:href="#b2i4nPWYo" opacity="1" fill-opacity="0" stroke="#000000" stroke-width="1" stroke-opacity="0"></use></g></g><g><use xlink:href="#c3KqnW7Uvu" opacity="1" fill="#000000" fill-opacity="0"></use><g><use xlink:href="#c3KqnW7Uvu" opacity="1" fill-opacity="0" stroke="#000000" stroke-width="1" stroke-opacity="0"></use></g></g></g></g></svg>