<?xml version="1.0" encoding="UTF-8"?>
<svg width="30" height="30" enable-background="new 0 0 512 512" viewBox="0 0 512 512" xmlns="http://www.w3.org/2000/svg">
<circle transform="matrix(.71 0 0 .71 41.76 41.76)" cx="300" cy="300" r="300" fill="#fff"/>
<path d="m512 271v-30h-9.798c-0.691-11.591-2.17-23.03-4.432-34.253l9.391-2.516-7.766-28.978-9.343 2.503c-3.647-10.946-8.065-21.611-13.226-31.93l8.377-4.836-15-25.98-8.419 4.861c-6.336-9.535-13.379-18.671-21.086-27.355l6.929-6.929-21.213-21.213-6.929 6.929c-8.684-7.707-17.82-14.751-27.355-21.086l4.861-8.419-25.98-14.999-4.836 8.377c-10.319-5.161-20.984-9.578-31.93-13.226l2.503-9.343-28.979-7.765-2.516 9.39c-11.223-2.263-22.663-3.743-34.253-4.434v-9.798h-30v9.798c-11.591 0.691-23.031 2.17-34.253 4.432l-2.517-9.39-28.978 7.766 2.504 9.342c-10.946 3.648-21.611 8.065-31.93 13.226l-4.837-8.377-25.98 15 4.861 8.419c-9.535 6.336-18.671 13.379-27.355 21.086l-6.929-6.929-21.212 21.214 6.929 6.929c-7.707 8.684-14.75 17.82-21.086 27.355l-8.419-4.86-15 25.98 8.377 4.836c-5.161 10.319-9.578 20.984-13.226 31.93l-9.342-2.503-7.766 28.978 9.391 2.516c-2.263 11.222-3.742 22.661-4.433 34.252h-9.799v30h9.799c0.691 11.591 2.17 23.03 4.432 34.253l-9.391 2.516 7.766 28.978 9.342-2.503c3.648 10.946 8.065 21.611 13.226 31.93l-8.377 4.836 15 25.98 8.419-4.86c6.336 9.535 13.379 18.67 21.086 27.355l-6.929 6.929 21.213 21.213 6.929-6.929c8.684 7.707 17.82 14.751 27.355 21.086l-4.861 8.419 25.98 15 4.837-8.377c10.319 5.161 20.984 9.578 31.93 13.226l-2.504 9.342 28.978 7.766 2.517-9.391c11.222 2.262 22.662 3.742 34.253 4.432v9.799h30v-9.798c11.59-0.691 23.03-2.17 34.252-4.432l2.516 9.39 28.979-7.765-2.503-9.343c10.946-3.648 21.611-8.065 31.93-13.226l4.836 8.377 25.98-14.999-4.861-8.419c9.535-6.336 18.671-13.379 27.355-21.086l6.929 6.929 21.213-21.213-6.929-6.929c7.708-8.684 14.75-17.82 21.086-27.355l8.419 4.861 15-25.98-8.377-4.836c5.161-10.319 9.578-20.984 13.226-31.93l9.343 2.503 7.766-28.978-9.391-2.516c2.262-11.222 3.742-22.662 4.432-34.253h9.799zm-202.82-15c0 5.209-0.766 10.239-2.168 15-2.67 9.064-7.693 17.124-14.362 23.479-6.648 6.334-14.923 10.967-24.132 13.198-4.016 0.973-8.204 1.501-12.515 1.501-5.209 0-10.239-0.766-15-2.168-9.064-2.67-17.124-7.693-23.479-14.362-6.334-6.648-10.967-14.923-13.198-24.132-0.973-4.016-1.501-8.204-1.501-12.515 0-5.209 0.766-10.239 2.168-15 2.67-9.064 7.693-17.124 14.362-23.479 6.648-6.334 14.923-10.967 24.132-13.198 4.016-0.973 8.204-1.501 12.515-1.501s8.499 0.529 12.515 1.501c10.076 2.441 19.034 7.756 25.964 15.029 6.334 6.648 10.967 14.923 13.198 24.132 0.972 4.016 1.501 8.204 1.501 12.515zm123.01-15h-120.2l104.08-60.094c8.72 18.513 14.319 38.769 16.12 60.094zm-31.161-86.05-104.04 60.07 60.07-104.04c17.112 11.958 32.016 26.863 43.975 43.974zm-69.931-59.016-60.094 104.08v-120.2c21.325 1.8 41.582 7.399 60.094 16.119zm-90.094-16.119v120.2l-60.093-104.09c18.512-8.72 38.769-14.319 60.093-16.119zm-86.05 31.16 60.07 104.04-104.04-60.07c11.959-17.112 26.864-32.016 43.975-43.975zm-59.016 69.931 104.08 60.094h-120.2c1.801-21.325 7.4-41.581 16.12-60.094zm104.08 90.094-104.08 60.094c-8.72-18.512-14.319-38.769-16.12-60.094zm-89.044 86.05 104.04-60.07-60.07 104.04c-17.111-11.959-32.016-26.863-43.975-43.975zm69.932 59.016 60.093-104.08v120.2c-21.324-1.801-41.581-7.4-60.093-16.12zm90.093 16.119v-120.2l60.094 104.08c-18.512 8.72-38.769 14.319-60.094 16.119zm86.05-31.16-60.07-104.04 104.04 60.07c-11.958 17.111-26.862 32.016-43.974 43.975zm59.016-69.931-104.08-60.094h120.2c-1.801 21.325-7.4 41.581-16.12 60.094z"/>
<circle cx="256" cy="256" r="23.178"/>
</svg>